<svg width="21" height="22" viewBox="0 0 21 22" fill="none" xmlns="http://www.w3.org/2000/svg">
<g clip-path="url(#clip0_4615_3158)">
<path d="M20.4895 11.1915C20.4895 10.353 20.4214 9.74108 20.2742 9.10654H10.6992V12.8911H16.3195C16.2062 13.8317 15.5943 15.2481 14.2346 16.1999L14.2155 16.3266L17.2429 18.6719L17.4527 18.6928C19.3789 16.9138 20.4895 14.2962 20.4895 11.1915Z" fill="#4285F4"/>
<path d="M10.6983 21.163C13.4517 21.163 15.7633 20.2565 17.4517 18.6928L14.2336 16.1999C13.3725 16.8004 12.2166 17.2197 10.6983 17.2197C8.00145 17.2197 5.71254 15.4407 4.89661 12.9818L4.77701 12.992L1.62906 15.4282L1.58789 15.5427C3.26491 18.874 6.70963 21.163 10.6983 21.163Z" fill="#34A853"/>
<path d="M4.89845 12.9818C4.68316 12.3473 4.55857 11.6674 4.55857 10.9649C4.55857 10.2623 4.68316 9.58243 4.88713 8.94788L4.88142 8.81274L1.69402 6.33737L1.58973 6.38698C0.898553 7.76941 0.501953 9.32183 0.501953 10.9649C0.501953 12.6079 0.898553 14.1602 1.58973 15.5427L4.89845 12.9818Z" fill="#FBBC05"/>
<path d="M10.6983 4.70996C12.6132 4.70996 13.905 5.53714 14.6415 6.2284L17.5197 3.41822C15.7521 1.77518 13.4517 0.766693 10.6983 0.766693C6.70963 0.766693 3.26491 3.0556 1.58789 6.38697L4.88529 8.94788C5.71254 6.48899 8.00145 4.70996 10.6983 4.70996Z" fill="#EB4335"/>
</g>
<defs>
<clipPath id="clip0_4615_3158">
<rect width="20" height="20.4666" fill="white" transform="translate(0.5 0.766693)"/>
</clipPath>
</defs>
</svg>
