<svg width="21" height="22" viewBox="0 0 21 22" fill="none" xmlns="http://www.w3.org/2000/svg">
<g clip-path="url(#clip0_4615_3166)">
<path fill-rule="evenodd" clip-rule="evenodd" d="M17.9366 1.06992H3.06342C1.65492 1.06992 0.5 2.22496 0.5 3.63329V18.5065C0.5 19.9148 1.65492 21.0699 3.06342 21.0699H17.9365C19.3452 21.0699 20.5 19.9148 20.5 18.5065V3.63329C20.5 2.22496 19.3452 1.06992 17.9366 1.06992ZM7.375 10.7287V16.9032H4.66667V9.11158H7.375V10.7287ZM6.01542 7.95025C5.26196 7.95025 4.65058 7.33933 4.65058 6.58542C4.65058 5.83137 5.26196 5.22121 6.01542 5.22121C6.76992 5.22121 7.38071 5.83142 7.38071 6.58542C7.38071 7.33933 6.76996 7.95025 6.01542 7.95025ZM16.3333 12.6532V16.9032H14V13.1185C14 12.2123 13.9019 11.0467 12.6598 11.0467C11.3989 11.0467 11.2083 12.0333 11.2083 13.0532V16.9032H8.95833V9.11158H11.125V10.1532H11.1481C11.4712 9.56992 12.263 9.11075 13.4419 9.11075C15.4282 9.11075 16.1032 10.05 16.2879 11.5196C16.3318 11.8645 16.3487 12.2366 16.3487 12.6532H16.3333Z" fill="#0077B5"/>
</g>
<defs>
<clipPath id="clip0_4615_3166">
<rect width="20" height="20.4666" fill="white" transform="translate(0.5 0.766693)"/>
</clipPath>
</defs>
</svg>
